<?xml version="1.0" encoding="utf-8"?>
<!-- Generator: Adobe Illustrator 26.0.3, SVG Export Plug-In . SVG Version: 6.00 Build 0)  -->
<svg version="1.1" id="レイヤー_1" xmlns="http://www.w3.org/2000/svg" xmlns:xlink="http://www.w3.org/1999/xlink" x="0px"
	 y="0px" viewBox="0 0 400 400" style="enable-background:new 0 0 400 400;" xml:space="preserve">
<style type="text/css">
	.st0{fill-rule:evenodd;clip-rule:evenodd;fill:#FFFFFF;}
</style>
<desc>Created with Sketch.</desc>
<g id="white_x2F_logo_x5F_symbol">
	<path id="Shape" class="st0" d="M165.4,146.5v-25.4c0-4.6,0.2-6.2,1-8.5c1.9-6.5,8.3-11.4,15.9-11.4c7.6,0,14,5,15.9,11.4
		c0.7,2.4,1,3.9,1,8.5v39.1c0,2.4,0,4.7-0.5,6.9c-1.3,5.9-6.7,11.3-12.6,12.6c-2.1,0.5-4.5,0.5-6.9,0.5h-39.2
		c-4.6,0-6.2-0.2-8.6-0.9c-6.4-1.9-11.4-8.3-11.4-15.9c0-7.6,5-14,11.4-15.9c2.4-0.7,3.9-0.9,8.6-0.9H165.4z M305.3,323.9H94.7
		V139.1c0-2.4,0.8-4.4,2.5-6l54.6-54.4c1.7-1.7,3.7-2.5,6.1-2.5h147.4V323.9z M329.2,34.4c-1.1-0.1-2.5-0.2-5.2-0.2H152.3
		c-1.9,0-3.8,0.1-5.1,0.2c-7.8,0.7-14.9,4.4-20.5,10L62.9,108c-5.6,5.6-9.3,12.6-10,20.4c-0.1,1.3-0.2,3.2-0.2,5.1v209
		c0,2.7,0.1,4.2,0.2,5.2c0.9,8.9,9,17,18,17.9c1.1,0.1,2.5,0.2,5.2,0.2h247.8c2.7,0,4.2-0.1,5.2-0.2c8.9-0.9,17-9,18-17.9
		c0.1-1.1,0.2-2.5,0.2-5.2v-285c0-2.7-0.1-4.2-0.2-5.2C346.2,43.4,338.1,35.3,329.2,34.4z"/>
</g>
</svg>
